<svg xmlns="http://www.w3.org/2000/svg" version="1.0" width="551.000000pt" height="453.000000pt" viewBox="0 0 551.000000 453.000000" preserveAspectRatio="xMidYMid meet">

<g transform="translate(0.000000,453.000000) scale(0.100000,-0.100000)" fill="#000000" stroke="none">
<path d="M2625 4150 c-282 -51 -520 -249 -621 -516 -70 -187 -71 -390 -1 -574 13 -36 127 -281 252 -545 125 -264 290 -614 368 -778 77 -164 144 -294 148 -290 4 4 84 172 179 373 95 201 263 559 375 795 112 237 214 464 227 505 20 65 23 95 23 230 0 150 -2 158 -34 253 -86 250 -291 447 -546 527 -79 25 -283 36 -370 20z m350 -100 c245 -78 411 -243 496 -495 21 -61 24 -89 24 -210 0 -191 15 -150 -283 -780 -49 -104 -167 -354 -262 -555 -94 -201 -175 -369 -179 -373 -7 -7 -44 68 -354 723 -384 814 -373 787 -384 945 -23 355 225 679 581 761 90 20 272 12 361 -16z"/>
<path d="M2675 3830 c-110 -24 -196 -72 -268 -149 -79 -84 -79 -84 -3 -157 36 -35 69 -64 73 -64 4 0 18 17 29 38 59 103 224 244 344 294 37 15 47 24 37 29 -22 13 -168 19 -212 9z"/>
<path d="M2914 3746 c-134 -49 -260 -151 -352 -283 -12 -17 -22 -33 -22 -36 0 -11 127 -47 166 -47 37 0 45 4 64 34 32 53 135 143 200 176 32 16 85 37 118 46 42 12 59 21 55 30 -9 23 -124 104 -146 103 -12 0 -49 -10 -83 -23z"/>
<path d="M3135 3580 c-42 -9 -125 -39 -125 -46 0 -3 10 -24 21 -47 62 -120 94 -285 83 -426 l-6 -76 30 35 c98 112 144 288 111 429 -14 63 -49 141 -63 140 -6 -1 -29 -5 -51 -9z"/>
<path d="M2286 3451 c-25 -109 -24 -112 47 -170 120 -99 301 -171 430 -171 l49 0 -7 43 c-4 23 -17 67 -29 97 l-21 55 -60 7 c-126 16 -245 71 -331 155 -31 29 -57 53 -59 53 -2 0 -11 -31 -19 -69z"/>
<path d="M2895 3456 c-28 -24 -59 -59 -69 -78 -18 -34 -18 -35 3 -84 60 -133 66 -298 16 -418 -8 -17 -5 -19 29 -13 20 3 61 17 91 31 48 22 55 29 66 68 17 59 17 269 0 338 -12 49 -75 200 -83 200 -2 0 -26 -20 -53 -44z"/>
<path d="M2294 3203 c14 -59 61 -137 118 -199 73 -77 164 -126 269 -144 67 -11 74 -11 86 6 16 21 31 73 40 132 l6 42 -39 0 c-124 1 -334 74 -438 154 l-49 38 7 -29z"/>
<path d="M1548 1265 c-38 -21 -55 -81 -39 -134 10 -36 52 -83 82 -93 18 -6 -59 -160 -115 -230 -76 -95 -139 -112 -152 -41 -17 90 21 272 72 351 16 25 11 42 -12 42 -21 0 -222 -121 -229 -138 -10 -27 27 -22 82 11 32 20 59 34 61 32 2 -1 -6 -34 -17 -71 -28 -99 -34 -157 -21 -221 15 -70 45 -103 95 -103 20 0 49 7 64 15 62 32 184 199 227 311 12 31 23 43 42 48 41 8 132 65 132 81 0 20 -22 19 -62 -4 -18 -10 -43 -22 -54 -25 -21 -6 -22 -4 -20 58 1 51 -3 70 -20 93 -25 33 -74 41 -116 18z m75 -72 c11 -36 1 -103 -14 -103 -5 0 -21 11 -34 25 -29 28 -33 76 -9 100 24 23 47 15 57 -22z"/>
<path d="M2084 1218 c-47 -41 -98 -147 -120 -248 -15 -73 -19 -80 -49 -94 -42 -20 -49 -20 -41 0 10 25 -23 81 -54 94 -93 39 -209 -110 -166 -214 17 -40 42 -56 88 -56 47 0 94 32 109 74 9 24 23 39 43 48 17 6 34 13 39 16 4 2 7 -8 7 -22 0 -15 6 -42 14 -61 26 -62 85 -72 158 -26 l46 29 21 -29 c27 -36 76 -39 131 -8 l38 22 28 -22 c38 -30 115 -29 171 3 l41 24 23 -24 c32 -34 41 -33 117 14 20 12 21 11 11 -18 -7 -19 -34 -46 -74 -74 -70 -51 -127 -127 -123 -166 7 -59 100 -64 163 -8 27 23 41 48 61 113 27 86 38 99 121 143 21 12 22 11 11 -19 -12 -36 1 -51 41 -47 22 3 30 19 80 168 65 191 89 243 134 293 38 42 66 52 93 33 36 -27 26 -91 -62 -371 -30 -95 -27 -118 13 -113 22 2 29 11 40 48 77 252 143 405 190 435 15 10 34 14 49 11 21 -6 24 -12 24 -51 0 -24 -11 -79 -24 -122 -37 -116 -66 -233 -66 -263 0 -84 133 -118 195 -50 13 14 31 20 61 20 31 0 51 7 73 26 17 14 31 21 31 16 0 -18 31 -42 54 -42 13 0 40 11 60 25 l36 24 26 -26 c22 -22 32 -25 69 -21 24 3 56 14 71 25 l27 20 36 -24 c30 -21 45 -24 93 -21 84 6 171 69 139 101 -8 8 -17 6 -33 -9 -47 -41 -130 -58 -156 -32 -19 19 -15 24 28 37 82 24 127 89 95 138 -51 78 -168 29 -198 -84 -13 -48 -51 -89 -94 -99 -34 -9 -45 6 -47 67 l-1 54 73 23 c84 27 92 48 17 44 l-48 -2 46 49 c47 50 79 105 91 155 10 42 -16 76 -57 76 -64 0 -130 -101 -164 -253 -13 -55 -23 -79 -35 -83 -22 -7 -24 -44 -3 -44 8 0 15 -6 15 -13 0 -19 -53 -67 -74 -67 -17 0 -18 6 -13 63 3 34 9 76 12 92 5 26 2 32 -25 48 -41 22 -62 22 -110 -3 -59 -30 -92 -87 -99 -168 -5 -58 -9 -68 -31 -79 -36 -18 -78 -16 -89 5 -12 22 0 83 40 210 39 125 56 224 43 259 -14 41 -57 58 -105 44 -41 -12 -115 -88 -125 -128 -10 -39 -22 -26 -17 20 10 87 -34 130 -111 107 -45 -14 -73 -42 -123 -126 -19 -32 -32 -50 -28 -39 4 11 9 43 12 72 5 46 3 54 -20 77 -40 40 -104 31 -159 -21 -32 -31 -46 -86 -28 -108 21 -25 34 -17 60 38 20 41 31 53 52 55 22 3 29 -2 34 -24 9 -35 -10 -140 -46 -250 l-28 -88 -66 -43 c-77 -50 -77 -51 -45 83 15 63 17 90 9 98 -18 18 -44 -6 -58 -55 -30 -100 -45 -131 -67 -141 -57 -26 -71 28 -35 132 20 59 19 70 -10 70 -27 0 -47 -34 -63 -105 -12 -56 -16 -61 -57 -82 -48 -25 -90 -29 -121 -13 -29 16 -24 24 32 44 67 23 99 55 99 99 0 43 -27 69 -74 70 -62 2 -123 -59 -133 -132 -10 -70 -96 -121 -123 -72 -23 45 -12 81 45 142 30 33 74 92 97 132 38 63 43 79 43 131 0 57 -2 61 -28 70 -39 14 -84 -12 -125 -73 -36 -53 -89 -214 -99 -301 -5 -49 -10 -59 -45 -87 -65 -53 -108 -38 -108 37 0 25 13 46 63 100 75 81 125 174 134 249 5 46 3 56 -12 67 -30 22 -62 16 -101 -18z m56 -71 c0 -35 -72 -168 -109 -201 -28 -25 -28 -10 0 75 49 148 109 218 109 126z m213 -6 c-3 -14 -15 -44 -26 -66 -20 -42 -97 -149 -102 -143 -18 17 63 230 94 248 24 13 42 -7 34 -39z m1747 -2 c0 -31 -35 -97 -77 -144 l-35 -40 6 43 c13 92 106 215 106 141z m-320 -226 c-1 -50 -40 -137 -70 -153 -49 -26 -71 21 -39 86 30 62 109 111 109 67z m-1985 -32 c-4 -24 -2 -42 4 -46 32 -19 -9 -85 -54 -85 -18 0 -26 7 -31 26 -16 61 24 144 69 144 16 0 18 -5 12 -39z m705 16 c0 -22 -21 -41 -72 -64 -26 -11 -28 -10 -28 11 0 32 43 76 75 76 19 0 25 -5 25 -23z m1777 6 c7 -18 -35 -57 -79 -72 -24 -9 -28 -7 -28 9 0 10 12 32 26 49 29 34 71 42 81 14z m-1583 -345 c-23 -46 -54 -78 -76 -78 -33 0 -19 40 35 97 44 47 52 52 55 35 2 -11 -4 -36 -14 -54z"/>
</g>
</svg>